<mxfile host="app.diagrams.net" agent="Mozilla/5.0 (Windows NT 10.0; Win64; x64) AppleWebKit/537.36 (KHTML, like Gecko) Chrome/138.0.0.0 Safari/537.36 Edg/138.0.0.0" version="26.2.8">
  <diagram name="Page-1" id="Vk1WEz5tbSOhOj1aytGo">
    <mxGraphModel dx="1091" dy="564" grid="1" gridSize="10" guides="1" tooltips="1" connect="1" arrows="1" fold="1" page="1" pageScale="1" pageWidth="1400" pageHeight="850" math="0" shadow="0">
      <root>
        <mxCell id="0" />
        <mxCell id="1" parent="0" />
        <mxCell id="nMqB3gKZb0MU2dUzMW38-45" value="" style="endArrow=none;html=1;rounded=0;entryX=0;entryY=0.5;entryDx=0;entryDy=0;" edge="1" parent="1">
          <mxGeometry width="50" height="50" relative="1" as="geometry">
            <mxPoint x="670" y="140" as="sourcePoint" />
            <mxPoint x="505" y="270" as="targetPoint" />
            <Array as="points">
              <mxPoint x="670" y="270" />
            </Array>
          </mxGeometry>
        </mxCell>
        <mxCell id="nMqB3gKZb0MU2dUzMW38-1" value="" style="rounded=0;whiteSpace=wrap;html=1;" vertex="1" parent="1">
          <mxGeometry x="670" y="85" width="120" height="60" as="geometry" />
        </mxCell>
        <mxCell id="nMqB3gKZb0MU2dUzMW38-2" value="" style="rounded=0;whiteSpace=wrap;html=1;" vertex="1" parent="1">
          <mxGeometry x="130" y="85" width="120" height="60" as="geometry" />
        </mxCell>
        <mxCell id="nMqB3gKZb0MU2dUzMW38-3" value="" style="rhombus;whiteSpace=wrap;html=1;" vertex="1" parent="1">
          <mxGeometry x="690" y="230" width="80" height="80" as="geometry" />
        </mxCell>
        <mxCell id="nMqB3gKZb0MU2dUzMW38-5" value="Lecturer" style="text;html=1;align=center;verticalAlign=middle;whiteSpace=wrap;rounded=0;" vertex="1" parent="1">
          <mxGeometry x="160" y="100" width="60" height="30" as="geometry" />
        </mxCell>
        <mxCell id="nMqB3gKZb0MU2dUzMW38-6" value="enrolment" style="text;html=1;align=center;verticalAlign=middle;whiteSpace=wrap;rounded=0;" vertex="1" parent="1">
          <mxGeometry x="700" y="255" width="60" height="30" as="geometry" />
        </mxCell>
        <mxCell id="nMqB3gKZb0MU2dUzMW38-9" value="" style="rounded=0;whiteSpace=wrap;html=1;" vertex="1" parent="1">
          <mxGeometry x="680" y="390" width="120" height="60" as="geometry" />
        </mxCell>
        <mxCell id="nMqB3gKZb0MU2dUzMW38-10" value="Student" style="text;html=1;align=center;verticalAlign=middle;whiteSpace=wrap;rounded=0;" vertex="1" parent="1">
          <mxGeometry x="700" y="405" width="60" height="30" as="geometry" />
        </mxCell>
        <mxCell id="nMqB3gKZb0MU2dUzMW38-11" value="" style="rhombus;whiteSpace=wrap;html=1;" vertex="1" parent="1">
          <mxGeometry x="420" y="75" width="80" height="80" as="geometry" />
        </mxCell>
        <mxCell id="nMqB3gKZb0MU2dUzMW38-12" value="teaches" style="text;html=1;align=center;verticalAlign=middle;whiteSpace=wrap;rounded=0;" vertex="1" parent="1">
          <mxGeometry x="430" y="100" width="60" height="30" as="geometry" />
        </mxCell>
        <mxCell id="nMqB3gKZb0MU2dUzMW38-13" value="" style="rounded=0;whiteSpace=wrap;html=1;" vertex="1" parent="1">
          <mxGeometry x="140" y="400" width="120" height="55" as="geometry" />
        </mxCell>
        <mxCell id="nMqB3gKZb0MU2dUzMW38-14" value="Department" style="text;html=1;align=center;verticalAlign=middle;whiteSpace=wrap;rounded=0;" vertex="1" parent="1">
          <mxGeometry x="170" y="410" width="60" height="30" as="geometry" />
        </mxCell>
        <mxCell id="nMqB3gKZb0MU2dUzMW38-15" value="" style="rhombus;whiteSpace=wrap;html=1;" vertex="1" parent="1">
          <mxGeometry x="430" y="380" width="80" height="80" as="geometry" />
        </mxCell>
        <mxCell id="nMqB3gKZb0MU2dUzMW38-16" value="belong to" style="text;html=1;align=center;verticalAlign=middle;whiteSpace=wrap;rounded=0;" vertex="1" parent="1">
          <mxGeometry x="425" y="405" width="90" height="30" as="geometry" />
        </mxCell>
        <mxCell id="nMqB3gKZb0MU2dUzMW38-17" value="" style="rhombus;whiteSpace=wrap;html=1;" vertex="1" parent="1">
          <mxGeometry x="425" y="230" width="80" height="80" as="geometry" />
        </mxCell>
        <mxCell id="nMqB3gKZb0MU2dUzMW38-18" value="offers" style="text;html=1;align=center;verticalAlign=middle;whiteSpace=wrap;rounded=0;" vertex="1" parent="1">
          <mxGeometry x="440" y="255" width="60" height="30" as="geometry" />
        </mxCell>
        <mxCell id="nMqB3gKZb0MU2dUzMW38-19" value="" style="endArrow=none;html=1;rounded=0;exitX=1;exitY=0.5;exitDx=0;exitDy=0;entryX=0;entryY=0.5;entryDx=0;entryDy=0;" edge="1" parent="1">
          <mxGeometry width="50" height="50" relative="1" as="geometry">
            <mxPoint x="250" y="114.47" as="sourcePoint" />
            <mxPoint x="420.0000000000002" y="114.47" as="targetPoint" />
          </mxGeometry>
        </mxCell>
        <mxCell id="nMqB3gKZb0MU2dUzMW38-22" value="" style="endArrow=none;html=1;rounded=0;exitX=1;exitY=0.5;exitDx=0;exitDy=0;entryX=0;entryY=0.5;entryDx=0;entryDy=0;" edge="1" parent="1">
          <mxGeometry width="50" height="50" relative="1" as="geometry">
            <mxPoint x="500" y="114.47" as="sourcePoint" />
            <mxPoint x="670" y="114.47" as="targetPoint" />
          </mxGeometry>
        </mxCell>
        <mxCell id="nMqB3gKZb0MU2dUzMW38-23" value="1" style="text;html=1;align=center;verticalAlign=middle;whiteSpace=wrap;rounded=0;" vertex="1" parent="1">
          <mxGeometry x="240" y="85" width="60" height="30" as="geometry" />
        </mxCell>
        <mxCell id="nMqB3gKZb0MU2dUzMW38-24" value="M" style="text;html=1;align=center;verticalAlign=middle;whiteSpace=wrap;rounded=0;" vertex="1" parent="1">
          <mxGeometry x="620" y="90" width="60" height="30" as="geometry" />
        </mxCell>
        <mxCell id="nMqB3gKZb0MU2dUzMW38-25" value="Course" style="text;html=1;align=center;verticalAlign=middle;whiteSpace=wrap;rounded=0;" vertex="1" parent="1">
          <mxGeometry x="700" y="100" width="60" height="30" as="geometry" />
        </mxCell>
        <mxCell id="nMqB3gKZb0MU2dUzMW38-27" value="" style="endArrow=none;html=1;rounded=0;entryX=0.5;entryY=1;entryDx=0;entryDy=0;exitX=0.5;exitY=0;exitDx=0;exitDy=0;" edge="1" parent="1" source="nMqB3gKZb0MU2dUzMW38-3" target="nMqB3gKZb0MU2dUzMW38-1">
          <mxGeometry width="50" height="50" relative="1" as="geometry">
            <mxPoint x="540" y="300" as="sourcePoint" />
            <mxPoint x="590" y="250" as="targetPoint" />
          </mxGeometry>
        </mxCell>
        <mxCell id="nMqB3gKZb0MU2dUzMW38-28" value="" style="endArrow=none;html=1;rounded=0;entryX=0.5;entryY=1;entryDx=0;entryDy=0;exitX=0.417;exitY=-0.033;exitDx=0;exitDy=0;exitPerimeter=0;" edge="1" parent="1" source="nMqB3gKZb0MU2dUzMW38-9" target="nMqB3gKZb0MU2dUzMW38-3">
          <mxGeometry width="50" height="50" relative="1" as="geometry">
            <mxPoint x="540" y="300" as="sourcePoint" />
            <mxPoint x="590" y="250" as="targetPoint" />
          </mxGeometry>
        </mxCell>
        <mxCell id="nMqB3gKZb0MU2dUzMW38-29" value="M" style="text;html=1;align=center;verticalAlign=middle;whiteSpace=wrap;rounded=0;" vertex="1" parent="1">
          <mxGeometry x="720" y="145" width="60" height="30" as="geometry" />
        </mxCell>
        <mxCell id="nMqB3gKZb0MU2dUzMW38-30" value="M" style="text;html=1;align=center;verticalAlign=middle;whiteSpace=wrap;rounded=0;" vertex="1" parent="1">
          <mxGeometry x="720" y="360" width="60" height="30" as="geometry" />
        </mxCell>
        <mxCell id="nMqB3gKZb0MU2dUzMW38-31" value="" style="endArrow=none;html=1;rounded=0;exitX=1;exitY=0.5;exitDx=0;exitDy=0;entryX=0;entryY=0.5;entryDx=0;entryDy=0;" edge="1" parent="1">
          <mxGeometry width="50" height="50" relative="1" as="geometry">
            <mxPoint x="510" y="419.47" as="sourcePoint" />
            <mxPoint x="680" y="419.47" as="targetPoint" />
          </mxGeometry>
        </mxCell>
        <mxCell id="nMqB3gKZb0MU2dUzMW38-32" value="M" style="text;html=1;align=center;verticalAlign=middle;whiteSpace=wrap;rounded=0;" vertex="1" parent="1">
          <mxGeometry x="630" y="390" width="60" height="30" as="geometry" />
        </mxCell>
        <mxCell id="nMqB3gKZb0MU2dUzMW38-33" value="" style="endArrow=none;html=1;rounded=0;exitX=1;exitY=0.5;exitDx=0;exitDy=0;entryX=0;entryY=0.5;entryDx=0;entryDy=0;" edge="1" parent="1">
          <mxGeometry width="50" height="50" relative="1" as="geometry">
            <mxPoint x="260" y="418.95000000000005" as="sourcePoint" />
            <mxPoint x="430.0000000000002" y="418.95000000000005" as="targetPoint" />
          </mxGeometry>
        </mxCell>
        <mxCell id="nMqB3gKZb0MU2dUzMW38-37" value="1" style="text;html=1;align=center;verticalAlign=middle;whiteSpace=wrap;rounded=0;" vertex="1" parent="1">
          <mxGeometry x="250" y="390" width="60" height="30" as="geometry" />
        </mxCell>
        <mxCell id="nMqB3gKZb0MU2dUzMW38-38" value="" style="rhombus;whiteSpace=wrap;html=1;" vertex="1" parent="1">
          <mxGeometry x="150" y="240" width="80" height="80" as="geometry" />
        </mxCell>
        <mxCell id="nMqB3gKZb0MU2dUzMW38-39" value="works in" style="text;html=1;align=center;verticalAlign=middle;whiteSpace=wrap;rounded=0;" vertex="1" parent="1">
          <mxGeometry x="160" y="265" width="60" height="30" as="geometry" />
        </mxCell>
        <mxCell id="nMqB3gKZb0MU2dUzMW38-40" value="" style="endArrow=none;html=1;rounded=0;entryX=0.5;entryY=1;entryDx=0;entryDy=0;" edge="1" parent="1" source="nMqB3gKZb0MU2dUzMW38-38" target="nMqB3gKZb0MU2dUzMW38-2">
          <mxGeometry width="50" height="50" relative="1" as="geometry">
            <mxPoint x="540" y="300" as="sourcePoint" />
            <mxPoint x="590" y="250" as="targetPoint" />
          </mxGeometry>
        </mxCell>
        <mxCell id="nMqB3gKZb0MU2dUzMW38-41" value="" style="endArrow=none;html=1;rounded=0;entryX=0.5;entryY=1;entryDx=0;entryDy=0;" edge="1" parent="1">
          <mxGeometry width="50" height="50" relative="1" as="geometry">
            <mxPoint x="189" y="400" as="sourcePoint" />
            <mxPoint x="189.47000000000003" y="320" as="targetPoint" />
          </mxGeometry>
        </mxCell>
        <mxCell id="nMqB3gKZb0MU2dUzMW38-42" value="M" style="text;html=1;align=center;verticalAlign=middle;whiteSpace=wrap;rounded=0;" vertex="1" parent="1">
          <mxGeometry x="180" y="145" width="60" height="30" as="geometry" />
        </mxCell>
        <mxCell id="nMqB3gKZb0MU2dUzMW38-43" value="1" style="text;html=1;align=center;verticalAlign=middle;whiteSpace=wrap;rounded=0;" vertex="1" parent="1">
          <mxGeometry x="180" y="370" width="60" height="30" as="geometry" />
        </mxCell>
        <mxCell id="nMqB3gKZb0MU2dUzMW38-44" value="" style="endArrow=none;html=1;rounded=0;entryX=0;entryY=0.5;entryDx=0;entryDy=0;" edge="1" parent="1" target="nMqB3gKZb0MU2dUzMW38-17">
          <mxGeometry width="50" height="50" relative="1" as="geometry">
            <mxPoint x="260" y="400" as="sourcePoint" />
            <mxPoint x="600" y="330" as="targetPoint" />
            <Array as="points">
              <mxPoint x="260" y="270" />
            </Array>
          </mxGeometry>
        </mxCell>
      </root>
    </mxGraphModel>
  </diagram>
</mxfile>
